<svg width="322" height="56" viewBox="0 0 322 56" fill="none" xmlns="http://www.w3.org/2000/svg">
<g clip-path="url(#clip0_10_91)">
<path d="M177.752 25.5817C177.33 24.7495 176.77 24.0436 176.076 23.4598C175.383 22.876 174.597 22.454 173.726 22.1858C172.855 21.9215 171.925 21.8308 170.94 21.9176C169.954 22.0044 169.052 22.2529 168.24 22.6669C167.428 23.0812 166.729 23.6334 166.146 24.3275C165.562 25.0217 165.136 25.8145 164.861 26.7059C164.589 27.5973 164.498 28.5676 164.589 29.6128C164.68 30.658 164.94 31.6007 165.362 32.4408C165.788 33.281 166.346 33.9869 167.037 34.5627C167.731 35.1347 168.515 35.5606 169.386 35.8367C170.257 36.1129 171.187 36.2076 172.174 36.1208C173.158 36.034 174.057 35.7815 174.869 35.3595C175.681 34.9375 176.38 34.3853 176.963 33.6989C177.546 33.0126 177.976 32.2199 178.248 31.3207C178.52 30.4173 178.61 29.4471 178.52 28.3979C178.43 27.3527 178.173 26.414 177.747 25.5817H177.752Z" fill="#201A17"/>
<path d="M202.426 23.4204C202.004 22.5882 201.444 21.8823 200.751 21.2985C200.057 20.7147 199.271 20.2927 198.4 20.0245C197.529 19.7602 196.599 19.6695 195.614 19.7563C194.628 19.8431 193.726 20.0915 192.914 20.5056C192.102 20.9199 191.403 21.4721 190.82 22.1662C190.237 22.8604 189.812 23.6531 189.535 24.5446C189.263 25.436 189.173 26.4063 189.263 27.4515C189.355 28.4967 189.614 29.4393 190.036 30.2795C190.462 31.1197 191.022 31.8296 191.711 32.4014C192.405 32.9734 193.189 33.3993 194.06 33.6754C194.931 33.9515 195.862 34.0461 196.848 33.9595C197.832 33.8727 198.732 33.6202 199.544 33.1982C200.356 32.7762 201.054 32.2239 201.637 31.5376C202.221 30.8513 202.65 30.0586 202.922 29.1593C203.194 28.256 203.285 27.2858 203.194 26.2366C203.104 25.1914 202.848 24.2527 202.421 23.4204H202.426Z" fill="#201A17"/>
<path d="M223.238 20.7937C222.575 19.8195 221.709 19.0938 220.635 18.6205C219.559 18.1471 218.318 17.9737 216.907 18.0998L214.237 18.3325L215.444 32.1255L218.112 31.8928C219.525 31.7705 220.718 31.376 221.696 30.7174C222.67 30.0547 223.4 29.1832 223.88 28.0985C224.361 27.0138 224.538 25.7714 224.415 24.379C224.294 22.967 223.899 21.7719 223.241 20.7937H223.238Z" fill="#201A17"/>
<path d="M236.199 35.1587L234.156 11.8246C233.876 8.61798 231.05 6.24356 227.845 6.52359L141.422 14.0886C138.217 14.3686 135.844 17.1967 136.124 20.4033L138.166 43.7372C138.446 46.9439 141.272 49.3184 144.477 49.0383L230.9 41.4733C234.105 41.1933 236.479 38.3653 236.199 35.1587ZM148.857 29.5893L157.71 28.8164L158.054 32.7368L149.2 33.5099L149.925 41.8164L145.427 42.2109L143.535 20.5769L158.337 19.2792L158.681 23.1997L148.376 24.103L148.857 29.5934V29.5893ZM182.541 32.4923C182.079 33.8965 181.373 35.1546 180.427 36.263C179.482 37.3713 178.335 38.2667 176.99 38.9491C175.646 39.6314 174.16 40.0454 172.536 40.1875C170.912 40.3295 169.378 40.1795 167.936 39.7418C166.493 39.3041 165.212 38.6178 164.085 37.6947C162.962 36.7679 162.05 35.6555 161.348 34.3501C160.652 33.0445 160.228 31.601 160.092 30.0115C159.953 28.4259 160.11 26.927 160.56 25.5229C161.014 24.1187 161.711 22.8684 162.661 21.768C163.607 20.6715 164.755 19.7801 166.099 19.0977C167.443 18.4154 168.936 18.0012 170.581 17.8553C172.225 17.7094 173.77 17.8593 175.213 18.2971C176.655 18.7388 177.937 19.4133 179.06 20.3324C180.183 21.2473 181.09 22.3596 181.779 23.6651C182.47 24.9707 182.884 26.4182 183.022 28.0037C183.159 29.5934 182.997 31.0882 182.537 32.4963L182.541 32.4923ZM207.209 30.3308C206.749 31.7389 206.043 32.9932 205.097 34.1015C204.151 35.2098 203.003 36.1052 201.659 36.7876C200.315 37.4699 198.828 37.884 197.204 38.026C195.58 38.168 194.043 38.0182 192.604 37.5804C191.162 37.1426 189.88 36.4602 188.753 35.5332C187.63 34.6064 186.72 33.4942 186.018 32.1886C185.32 30.8831 184.898 29.4395 184.76 27.85C184.623 26.2645 184.78 24.7655 185.229 23.3615C185.682 21.9573 186.38 20.7069 187.329 19.6065C188.277 18.51 189.423 17.6187 190.767 16.9363C192.111 16.254 193.606 15.8399 195.25 15.6938C196.893 15.5519 198.439 15.6938 199.881 16.1356C201.325 16.5774 202.605 17.2519 203.728 18.1709C204.853 19.0859 205.758 20.1983 206.449 21.5037C207.138 22.8093 207.552 24.2569 207.69 25.8424C207.828 27.4319 207.667 28.9268 207.205 30.3308H207.209ZM227.976 29.6998C227.172 31.4194 225.946 32.8197 224.305 33.9004C222.665 34.9812 220.676 35.6241 218.333 35.8291L211.282 36.4484L209.389 14.8143L216.442 14.1951C218.783 13.99 220.856 14.2779 222.658 15.0549C224.464 15.832 225.91 16.9955 226.998 18.5377C228.086 20.0799 228.724 21.8982 228.906 23.9885C229.087 26.079 228.776 27.9841 227.971 29.7038L227.976 29.6998Z" fill="#201A17"/>
<path d="M252.005 12.2075C250.535 12.2075 249.262 12.4757 248.178 13.0121C247.094 13.5485 246.262 14.3255 245.678 15.3392C245.095 16.3528 244.804 17.5952 244.804 19.0664V19.6621H241.449V23.7561H244.804V38.6929H249.384V23.7561H253.613V19.6621H249.384V19.0664C249.384 18.0883 249.664 17.3704 250.224 16.9168C250.784 16.4632 251.575 16.2345 252.6 16.2345C252.762 16.2345 252.944 16.2423 253.14 16.2503C253.338 16.2621 253.554 16.2898 253.787 16.3371V12.3849C253.554 12.3376 253.266 12.2982 252.932 12.2627C252.593 12.2272 252.285 12.2114 252.005 12.2114V12.2075Z" fill="#201A17"/>
<path d="M267.174 20.0958C265.984 19.5238 264.608 19.2399 263.048 19.2399C261.766 19.2399 260.576 19.449 259.479 19.871C258.384 20.289 257.434 20.8689 256.629 21.6025C255.825 22.3361 255.239 23.2078 254.864 24.2096L258.605 26.0279C258.955 25.1878 259.507 24.5014 260.265 23.9651C261.021 23.4286 261.889 23.1604 262.87 23.1604C263.919 23.1604 264.757 23.4365 265.389 23.9808C266.019 24.5291 266.331 25.2114 266.331 26.0279V26.6431L260.702 27.5662C259.207 27.7989 257.973 28.1971 256.996 28.7573C256.018 29.3173 255.29 30.0115 254.812 30.8399C254.335 31.668 254.095 32.6068 254.095 33.656C254.095 34.7051 254.363 35.7148 254.9 36.5432C255.435 37.3715 256.2 38.0065 257.189 38.4482C258.179 38.89 259.338 39.1148 260.671 39.1148C261.719 39.1148 262.668 38.9768 263.52 38.6967C264.371 38.4167 265.14 37.9985 265.826 37.4385C266.106 37.2097 266.366 36.9572 266.614 36.6931V38.7007H270.951V26.0358C270.951 24.7066 270.62 23.5272 269.953 22.5018C269.287 21.4762 268.361 20.6756 267.174 20.1037V20.0958ZM265.739 33.3011C265.342 34.0228 264.777 34.5908 264.045 34.9971C263.31 35.4073 262.464 35.6084 261.509 35.6084C260.764 35.6084 260.142 35.4151 259.638 35.0326C259.137 34.646 258.885 34.1292 258.885 33.4745C258.885 32.8198 259.106 32.2557 259.551 31.8496C259.992 31.4433 260.671 31.1553 261.576 30.9937L266.331 30.1497V30.9581C266.331 31.7982 266.134 32.5793 265.736 33.3011H265.739Z" fill="#201A17"/>
<path d="M280.66 24.1899C281.44 23.7126 282.332 23.472 283.337 23.472C284.408 23.472 285.359 23.756 286.186 24.328C287.014 24.8998 287.602 25.6729 287.952 26.655L291.973 24.8723C291.598 23.7521 290.988 22.7738 290.136 21.9338C289.285 21.0937 288.276 20.4349 287.112 19.9577C285.945 19.4804 284.688 19.2399 283.337 19.2399C281.425 19.2399 279.717 19.6697 278.216 20.5335C276.713 21.3973 275.528 22.5727 274.668 24.0676C273.804 25.5586 273.375 27.2506 273.375 29.1398C273.375 31.0292 273.812 32.7252 274.688 34.2279C275.564 35.7307 276.746 36.9218 278.236 37.7974C279.726 38.673 281.428 39.1109 283.34 39.1109C284.716 39.1109 285.986 38.8703 287.152 38.393C288.319 37.9158 289.321 37.2492 290.159 36.3972C290.999 35.5453 291.606 34.5828 291.978 33.5101L287.957 31.6918C287.582 32.67 286.994 33.4509 286.19 34.0347C285.387 34.6183 284.436 34.9103 283.34 34.9103C282.34 34.9103 281.444 34.6657 280.664 34.1767C279.883 33.6876 279.272 33.0091 278.827 32.1493C278.385 31.2855 278.16 30.2956 278.16 29.1754C278.16 28.0553 278.381 27.0928 278.827 26.2211C279.269 25.3455 279.879 24.671 280.664 24.1938L280.66 24.1899Z" fill="#201A17"/>
<path d="M304.063 34.8788C303.318 34.8788 302.703 34.7606 302.226 34.5279C301.748 34.2952 301.398 33.9559 301.177 33.5141C300.956 33.0725 300.846 32.536 300.846 31.9049V23.7522H305.217V19.6582H300.846V15.3195H296.231V16.7907C296.231 17.7255 295.977 18.4355 295.478 18.9246C294.977 19.4136 294.26 19.6582 293.33 19.6582H292.978V23.7522H296.231V32.1494C296.231 34.2952 296.825 35.9557 298.012 37.135C299.202 38.3143 300.866 38.9019 303.01 38.9019C303.361 38.9019 303.744 38.8783 304.166 38.831C304.582 38.7837 304.957 38.7363 305.286 38.6929V34.7763C305.076 34.7999 304.859 34.8237 304.638 34.8474C304.418 34.871 304.225 34.8829 304.063 34.8829V34.8788Z" fill="#201A17"/>
<path d="M316.918 27.7751L313.874 26.864C313.434 26.726 313.043 26.5722 312.704 26.4104C312.365 26.2488 312.105 26.0397 311.915 25.7793C311.73 25.523 311.635 25.2312 311.635 24.9037C311.635 24.3201 311.856 23.8585 312.301 23.5233C312.743 23.184 313.35 23.0145 314.12 23.0145C315.073 23.0145 315.936 23.267 316.705 23.7678C317.473 24.2687 318.021 24.9512 318.349 25.815L321.844 24.1701C321.261 22.6082 320.284 21.3934 318.908 20.5335C317.532 19.6697 315.947 19.2399 314.154 19.2399C312.779 19.2399 311.561 19.4845 310.5 19.9735C309.44 20.4626 308.611 21.1449 308.017 22.0205C307.421 22.8961 307.126 23.9138 307.126 25.0812C307.126 26.3868 307.54 27.5228 308.367 28.493C309.195 29.4593 310.402 30.1654 311.987 30.611L315.096 31.4867C315.515 31.605 315.888 31.751 316.216 31.9246C316.543 32.098 316.803 32.311 317.005 32.5555C317.201 32.8002 317.301 33.1118 317.301 33.4824C317.301 34.0899 317.055 34.579 316.566 34.9537C316.078 35.3284 315.423 35.5137 314.608 35.5137C313.535 35.5137 312.562 35.21 311.687 34.6026C310.811 33.9952 310.13 33.1552 309.641 32.0823L306.18 33.727C306.763 35.3836 307.804 36.697 309.31 37.6633C310.811 38.6296 312.578 39.1148 314.608 39.1148C316.055 39.1148 317.312 38.8703 318.383 38.3812C319.457 37.8921 320.297 37.2097 320.903 36.3341C321.51 35.4585 321.813 34.4528 321.813 33.3088C321.813 31.956 321.387 30.8122 320.536 29.8813C319.685 28.9505 318.478 28.2485 316.918 27.783V27.7751Z" fill="#201A17"/>
<path d="M63.296 20.5335C61.7823 19.6697 60.0794 19.2399 58.1913 19.2399C56.303 19.2399 54.6356 19.6697 53.1219 20.5335C51.6082 21.3973 50.3941 22.5727 49.4874 24.0676C48.5767 25.5586 48.1234 27.2624 48.1234 29.1754C48.1234 31.0883 48.5767 32.7922 49.4874 34.2831C50.398 35.7741 51.6121 36.9534 53.1417 37.8172C54.6672 38.681 56.3503 39.1109 58.1952 39.1109C60.0401 39.1109 61.7509 38.681 63.2646 37.8172C64.7783 36.9534 65.9924 35.778 66.899 34.2831C67.8096 32.7922 68.2629 31.0883 68.2629 29.1754C68.2629 27.2624 67.8135 25.5309 66.9188 24.0519C66.02 22.5727 64.8138 21.3973 63.3001 20.5376L63.296 20.5335ZM62.7875 32.1296C62.3342 33.0052 61.7154 33.6876 60.9348 34.1767C60.1543 34.6657 59.2398 34.9103 58.1913 34.9103C57.1427 34.9103 56.2557 34.6657 55.4635 34.1767C54.6711 33.6876 54.0482 33.0052 53.5909 32.1296C53.1376 31.254 52.909 30.2719 52.909 29.1754C52.909 28.0789 53.1376 27.1008 53.5909 26.237C54.0444 25.3732 54.6672 24.6987 55.4635 24.2096C56.2557 23.7206 57.1664 23.476 58.1913 23.476C59.2161 23.476 60.1543 23.7206 60.9348 24.2096C61.7154 24.6987 62.3342 25.3771 62.7875 26.237C63.241 27.1008 63.4695 28.0789 63.4695 29.1754C63.4695 30.2719 63.241 31.2578 62.7875 32.1296Z" fill="#201A17"/>
<path d="M86.041 20.5692C84.5944 19.6817 82.9741 19.2399 81.1806 19.2399C79.7141 19.2399 78.4173 19.524 77.3016 20.0958C76.4069 20.5534 75.6619 21.1609 75.0627 21.9102V19.6581H70.7264V45.6859H75.3426V36.8627C75.9023 37.4583 76.5724 37.9435 77.353 38.3064C78.508 38.8427 79.7694 39.1109 81.1451 39.1109C82.9859 39.1109 84.6298 38.6732 86.0765 37.7976C87.5232 36.9219 88.6625 35.7268 89.502 34.2123C90.3417 32.6977 90.7595 31.0174 90.7595 29.1754C90.7595 27.3335 90.3338 25.6297 89.4824 24.1387C88.6309 22.6478 87.4838 21.4566 86.037 20.5692H86.041ZM85.3078 32.1493C84.8426 33.0131 84.208 33.6876 83.4039 34.1767C82.5997 34.6658 81.6734 34.9103 80.6248 34.9103C79.5762 34.9103 78.7208 34.6658 77.9167 34.1767C77.1125 33.6876 76.4817 33.0092 76.0284 32.1493C75.5751 31.2857 75.3464 30.2956 75.3464 29.1754C75.3464 28.0553 75.5751 27.1008 76.0284 26.237C76.4817 25.3732 77.1125 24.6988 77.9167 24.2096C78.7208 23.7206 79.6234 23.476 80.6248 23.476C81.6261 23.476 82.5997 23.7206 83.4039 24.2096C84.208 24.6988 84.8426 25.3772 85.3078 26.237C85.773 27.1008 86.0056 28.0789 86.0056 29.1754C86.0056 30.2719 85.773 31.2857 85.3078 32.1493Z" fill="#201A17"/>
<path d="M108.699 22.0052C107.907 21.1414 106.945 20.4669 105.814 19.9778C104.682 19.4887 103.374 19.2442 101.88 19.2442C100.086 19.2442 98.4777 19.6742 97.0547 20.5378C95.6317 21.4016 94.5042 22.5731 93.6645 24.0521C92.825 25.5352 92.407 27.2312 92.407 29.1402C92.407 31.0492 92.8132 32.6624 93.629 34.1769C94.4451 35.6916 95.5922 36.8945 97.0743 37.7819C98.5525 38.6695 100.275 39.1111 102.23 39.1111C103.511 39.1111 104.702 38.914 105.798 38.5157C106.894 38.1212 107.836 37.573 108.628 36.8708C109.421 36.1727 110.004 35.3682 110.374 34.4571L106.669 32.6388C106.251 33.3842 105.672 33.9798 104.939 34.4214C104.205 34.8632 103.314 35.0882 102.262 35.0882C101.209 35.0882 100.287 34.8436 99.4829 34.3544C98.6787 33.8653 98.0717 33.1712 97.6657 32.272C97.4212 31.7316 97.2675 31.1439 97.2045 30.5049H110.899C110.993 30.2249 111.056 29.9172 111.092 29.5781C111.127 29.2388 111.143 28.8956 111.143 28.5446C111.143 27.2628 110.934 26.0676 110.512 24.9593C110.095 23.851 109.488 22.8649 108.695 22.0052H108.699ZM97.2991 26.971C97.3779 26.5685 97.4882 26.1978 97.6341 25.8508C98.0204 24.9396 98.5841 24.2414 99.3291 23.7524C100.074 23.2633 100.926 23.0188 101.88 23.0188C102.834 23.0188 103.736 23.2633 104.45 23.7524C105.159 24.2414 105.672 24.9081 105.987 25.7481C106.129 26.1308 106.216 26.541 106.243 26.971H97.295H97.2991Z" fill="#201A17"/>
<path d="M127.12 20.151C126.036 19.5437 124.794 19.2399 123.395 19.2399C121.996 19.2399 120.86 19.5358 119.847 20.1314C119.063 20.5889 118.456 21.2161 118.01 22.0009V19.662H113.674V38.6929H118.29V27.5346C118.29 26.6946 118.452 25.9727 118.779 25.3654C119.106 24.758 119.56 24.2925 120.143 23.9651C120.726 23.6378 121.389 23.476 122.138 23.476C122.887 23.476 123.549 23.6378 124.132 23.9651C124.716 24.2925 125.169 24.758 125.496 25.3654C125.823 25.9727 125.985 26.6946 125.985 27.5346V38.6929H130.566V26.4499C130.566 25.0261 130.262 23.7719 129.655 22.6912C129.048 21.6066 128.204 20.7625 127.12 20.1551V20.151Z" fill="#201A17"/>
<path d="M19.3118 9.70312C8.6487 9.70312 0.00398827 18.3527 0.00398827 29.0218H38.6234C38.6234 18.3527 29.9787 9.70312 19.3156 9.70312H19.3118ZM26.0524 23.0543C25.7253 23.5433 25.067 23.6735 24.5781 23.3462C24.0893 23.0188 23.9593 22.3602 24.2864 21.8711C24.6137 21.382 25.2719 21.2518 25.7608 21.5791C26.2495 21.9066 26.3796 22.5652 26.0524 23.0543ZM26.7305 17.1419C26.4032 17.631 25.7449 17.7612 25.2562 17.4337C24.7674 17.1064 24.6374 16.4478 24.9645 15.9586C25.2916 15.4696 25.9499 15.3394 26.4387 15.6668C26.9276 15.9942 27.0576 16.6528 26.7305 17.1419ZM31.9023 21.8947C31.5751 22.3838 30.9168 22.514 30.4281 22.1866C29.9392 21.8593 29.8091 21.2005 30.1362 20.7114C30.4635 20.2224 31.1218 20.0922 31.6106 20.4196C32.0994 20.7469 32.2296 21.4057 31.9023 21.8947Z" fill="#201A17"/>
<path d="M9.9495 45.911L6.52 54.1071L11.0335 56.0003L14.4946 47.7332C16.0359 48.1316 17.6521 48.3445 19.3156 48.3445C29.9628 48.3445 38.6234 39.6791 38.6234 29.0258H33.7274C33.7274 36.9773 27.2625 43.4498 19.3116 43.4498C11.3607 43.4498 4.89591 36.9813 4.89591 29.0258H0C0 36.2792 4.0208 42.6096 9.94557 45.9149L9.9495 45.911Z" fill="#201A17"/>
<path d="M27.2984 0C23.5023 0 20.2029 2.11804 18.504 5.23398C19.8126 6.44879 20.7942 8.00675 21.3066 9.76982C25.7256 8.77588 29.0408 4.87111 29.1197 0.169602C28.5283 0.0591634 27.9213 0 27.2984 0Z" fill="#201A17"/>
<path d="M11.6924 2.54761C10.9395 2.54761 10.2102 2.63438 9.50462 2.78821C10.7148 6.96512 14.5621 10.0179 19.1229 10.0179C19.876 10.0179 20.6052 9.93118 21.3108 9.77735C20.1006 5.60043 16.2532 2.54761 11.6924 2.54761Z" fill="#201A17"/>
</g>
<defs>
<clipPath id="clip0_10_91">
<rect width="322" height="56" fill="white"/>
</clipPath>
</defs>
</svg>
