<svg width="37" height="37" viewBox="0 0 37 37" fill="none" xmlns="http://www.w3.org/2000/svg">
<path d="M18.1131 3.62262C10.1107 3.62262 3.62263 10.1107 3.62263 18.1131C3.62263 24.9031 8.29822 30.5846 14.6016 32.1568C14.534 31.9612 14.4905 31.7341 14.4905 31.4528V28.9761C13.9024 28.9761 12.9171 28.9761 12.6695 28.9761C11.6781 28.9761 10.7966 28.5499 10.3692 27.7577C9.89459 26.8774 9.81247 25.531 8.63633 24.7075C8.28735 24.4334 8.55301 24.1206 8.95512 24.1629C9.69776 24.373 10.3136 24.8826 10.8932 25.6385C11.4704 26.3956 11.7421 26.5671 12.8205 26.5671C13.3433 26.5671 14.1258 26.5369 14.8624 26.421C15.2585 25.4151 15.9432 24.4889 16.78 24.0518C11.9546 23.5555 9.65187 21.1549 9.65187 17.8957C9.65187 16.4926 10.2496 15.1353 11.2651 13.9918C10.9319 12.8567 10.5128 10.5418 11.3931 9.66032C13.5643 9.66032 14.8769 11.0683 15.1921 11.4487C16.274 11.078 17.4622 10.8679 18.7108 10.8679C19.9618 10.8679 21.1549 11.078 22.2393 11.4511C22.5508 11.0731 23.8646 9.66032 26.0406 9.66032C26.9245 10.543 26.5007 12.8675 26.1638 14.0002C27.1733 15.1413 27.7674 16.495 27.7674 17.8957C27.7674 21.1525 25.4682 23.5519 20.6501 24.0506C21.976 24.7425 22.9433 26.6866 22.9433 28.1514V31.4528C22.9433 31.5784 22.9155 31.6689 22.901 31.7764C28.5474 29.7972 32.6036 24.4358 32.6036 18.1131C32.6036 10.1107 26.1155 3.62262 18.1131 3.62262Z" fill="black"/>
</svg>
