<svg width="37" height="37" viewBox="0 0 37 37" fill="none" xmlns="http://www.w3.org/2000/svg">
<path d="M18.1131 2.4151C9.45745 2.4151 2.41508 9.45747 2.41508 18.1131C2.41508 26.7688 9.45745 33.8111 18.1131 33.8111C26.7687 33.8111 33.8111 26.7688 33.8111 18.1131C33.8111 9.45747 26.7687 2.4151 18.1131 2.4151ZM14.0872 7.24526H22.1367C25.9102 7.24526 28.981 10.3148 28.981 14.0872V22.1367C28.981 25.9102 25.9114 28.981 22.139 28.981H14.0895C10.316 28.981 7.24524 25.9114 7.24524 22.139V14.0896C7.24524 10.316 10.3148 7.24526 14.0872 7.24526ZM14.0872 9.66034C11.6467 9.66034 9.66032 11.6479 9.66032 14.0896V22.139C9.66032 24.5795 11.6479 26.5659 14.0895 26.5659H22.139C24.5795 26.5659 26.5659 24.5783 26.5659 22.1367V14.0872C26.5659 11.6468 24.5783 9.66034 22.1367 9.66034H14.0872ZM23.7499 11.6721C24.1942 11.6721 24.5541 12.032 24.5541 12.4764C24.5541 12.9207 24.1942 13.283 23.7499 13.283C23.3055 13.283 22.9433 12.9207 22.9433 12.4764C22.9433 12.032 23.3055 11.6721 23.7499 11.6721ZM18.1131 12.0754C21.4423 12.0754 24.1508 14.7839 24.1508 18.1131C24.1508 21.4423 21.4423 24.1508 18.1131 24.1508C14.7839 24.1508 12.0754 21.4423 12.0754 18.1131C12.0754 14.7839 14.7839 12.0754 18.1131 12.0754ZM18.1131 14.4905C17.1523 14.4905 16.2309 14.8722 15.5515 15.5515C14.8721 16.2309 14.4905 17.1523 14.4905 18.1131C14.4905 19.0739 14.8721 19.9953 15.5515 20.6747C16.2309 21.3541 17.1523 21.7357 18.1131 21.7357C19.0739 21.7357 19.9953 21.3541 20.6747 20.6747C21.354 19.9953 21.7357 19.0739 21.7357 18.1131C21.7357 17.1523 21.354 16.2309 20.6747 15.5515C19.9953 14.8722 19.0739 14.4905 18.1131 14.4905Z" fill="black"/>
</svg>
