<svg width="37" height="37" viewBox="0 0 37 37" fill="none" xmlns="http://www.w3.org/2000/svg">
<path d="M13.8867 3.62262C12.2191 3.62262 10.8679 4.97386 10.8679 6.64147C10.8679 8.30908 12.2191 9.66032 13.8867 9.66032H16.9056V6.64147C16.9056 4.97386 15.5543 3.62262 13.8867 3.62262ZM21.1319 3.62262C19.4643 3.62262 18.1131 4.97386 18.1131 6.64147V13.8867C18.1131 15.5543 19.4643 16.9056 21.1319 16.9056C22.7996 16.9056 24.1508 15.5543 24.1508 13.8867V6.64147C24.1508 4.97386 22.7996 3.62262 21.1319 3.62262ZM6.64147 10.8679C4.97385 10.8679 3.62262 12.2191 3.62262 13.8867C3.62262 15.5543 4.97385 16.9056 6.64147 16.9056H13.8867C15.5543 16.9056 16.9056 15.5543 16.9056 13.8867C16.9056 12.2191 15.5543 10.8679 13.8867 10.8679H6.64147ZM28.3772 10.8679C26.7096 10.8679 25.3583 12.2191 25.3583 13.8867V16.9056H28.3772C30.0448 16.9056 31.396 15.5543 31.396 13.8867C31.396 12.2191 30.0448 10.8679 28.3772 10.8679ZM6.64147 18.1131C4.97385 18.1131 3.62262 19.4643 3.62262 21.1319C3.62262 22.7996 4.97385 24.1508 6.64147 24.1508C8.30908 24.1508 9.66032 22.7996 9.66032 21.1319V18.1131H6.64147ZM13.8867 18.1131C12.2191 18.1131 10.8679 19.4643 10.8679 21.1319V28.3772C10.8679 30.0448 12.2191 31.396 13.8867 31.396C15.5543 31.396 16.9056 30.0448 16.9056 28.3772V21.1319C16.9056 19.4643 15.5543 18.1131 13.8867 18.1131ZM21.1319 18.1131C19.4643 18.1131 18.1131 19.4643 18.1131 21.1319C18.1131 22.7996 19.4643 24.1508 21.1319 24.1508H28.3772C30.0448 24.1508 31.396 22.7996 31.396 21.1319C31.396 19.4643 30.0448 18.1131 28.3772 18.1131H21.1319ZM18.1131 25.3583V28.3772C18.1131 30.0448 19.4643 31.396 21.1319 31.396C22.7996 31.396 24.1508 30.0448 24.1508 28.3772C24.1508 26.7096 22.7996 25.3583 21.1319 25.3583H18.1131Z" fill="black"/>
</svg>
