<svg width="37" height="37" viewBox="0 0 37 37" fill="none" xmlns="http://www.w3.org/2000/svg">
<path d="M7.24525 4.83014C5.91092 4.83014 4.83017 5.91089 4.83017 7.24522V28.9809C4.83017 30.3153 5.91092 31.396 7.24525 31.396H28.981C30.3153 31.396 31.396 30.3153 31.396 28.9809V7.24522C31.396 5.91089 30.3153 4.83014 28.981 4.83014H7.24525ZM10.4433 10.8678H16.0117L19.2617 15.514L23.2829 10.8678H25.0352L20.0494 16.6414L26.1484 25.3583H20.5801L16.974 20.2027L12.5212 25.3583H10.7405L16.1815 19.073L10.4433 10.8678ZM13.1367 12.2971L21.2923 23.922H23.4527L15.2947 12.2971H13.1367Z" fill="black"/>
</svg>
