<svg width="118" height="170" viewBox="0 0 118 170" fill="none" xmlns="http://www.w3.org/2000/svg">
<g clip-path="url(#clip0_1_8)">
<mask id="mask0_1_8" style="mask-type:luminance" maskUnits="userSpaceOnUse" x="0" y="0" width="116" height="168">
<path d="M115.13 0H0V167.8H115.13V0Z" fill="white"/>
</mask>
<g mask="url(#mask0_1_8)">
<path d="M-6.10352e-05 86.9727C-6.10352e-05 54.991 25.7637 29.081 57.5652 29.081C89.3666 29.081 115.13 54.991 115.13 86.9727H-6.10352e-05Z" fill="#FF8C14"/>
<path d="M77.0714 52.7785C78.8264 52.7785 80.2491 51.3478 80.2491 49.5828C80.2491 47.8178 78.8264 46.3871 77.0714 46.3871C75.3163 46.3871 73.8937 47.8178 73.8937 49.5828C73.8937 51.3478 75.3163 52.7785 77.0714 52.7785Z" fill="#8C3C00"/>
<path d="M92.471 67.0118C94.226 67.0118 95.6487 65.5811 95.6487 63.816C95.6487 62.051 94.226 60.6203 92.471 60.6203C90.7159 60.6203 89.2933 62.051 89.2933 63.816C89.2933 65.5811 90.7159 67.0118 92.471 67.0118Z" fill="#8C3C00"/>
<path d="M75.0425 70.5025C76.7976 70.5025 78.2202 69.0718 78.2202 67.3067C78.2202 65.5417 76.7976 64.111 75.0425 64.111C73.2874 64.111 71.8648 65.5417 71.8648 67.3067C71.8648 69.0718 73.2874 70.5025 75.0425 70.5025Z" fill="#8C3C00"/>
<path d="M29.6503 137.563L19.4328 162.121L32.9013 167.8L43.2166 143.045C47.8121 144.225 52.6275 144.864 57.5896 144.864C89.3421 144.864 115.155 118.905 115.155 86.9727H100.562C100.562 110.793 81.2757 130.189 57.5896 130.189C33.9035 130.189 14.5929 110.793 14.5929 86.9727H-6.10352e-05C-6.10352e-05 108.704 11.9774 127.681 29.6503 137.563Z" fill="white"/>
<path d="M81.3735 0C70.056 0 60.2296 6.34227 55.1697 15.6836C59.0562 19.3218 62.014 23.9925 63.5295 29.2777C76.7047 26.3032 86.58 14.602 86.8244 0.516232C85.0645 0.19666 83.2556 0 81.3979 0H81.3735Z" fill="#00641E"/>
<path d="M34.8569 7.64514C32.6081 7.64514 30.4326 7.89097 28.3304 8.38262C31.9236 20.8951 43.4122 30.0398 57.003 30.0398C59.2518 30.0398 61.4273 29.7939 63.5295 29.3023C59.9363 16.7898 48.4477 7.64514 34.8569 7.64514Z" fill="#00961E"/>
</g>
</g>
<defs>
<clipPath id="clip0_1_8">
<rect width="117.33" height="169.619" fill="white"/>
</clipPath>
</defs>
</svg>
