<svg width="251" height="178" viewBox="0 0 251 178" fill="none" xmlns="http://www.w3.org/2000/svg">
<path d="M301.5 322.701C357.005 267.172 357.005 177.142 301.5 121.613C245.995 66.0843 156.005 66.0843 100.5 121.613C44.9954 177.142 44.9954 267.172 100.5 322.701C156.005 378.23 245.995 378.23 301.5 322.701Z" fill="#A08D84"/>
<path d="M202.751 126.313C207.07 126.313 210.571 122.811 210.571 118.49C210.571 114.169 207.07 110.667 202.751 110.667C198.433 110.667 194.932 114.169 194.932 118.49C194.932 122.811 198.433 126.313 202.751 126.313Z" fill="#52443D"/>
<path d="M252.463 140.434C256.782 140.434 260.283 136.931 260.283 132.611C260.283 128.29 256.782 124.787 252.463 124.787C248.145 124.787 244.644 128.29 244.644 132.611C244.644 136.931 248.145 140.434 252.463 140.434Z" fill="#52443D"/>
<path d="M217.835 167.438C222.154 167.438 225.655 163.935 225.655 159.614C225.655 155.294 222.154 151.791 217.835 151.791C213.517 151.791 210.016 155.294 210.016 159.614C210.016 163.935 213.517 167.438 217.835 167.438Z" fill="#52443D"/>
<path d="M157.557 4.92343C132.588 17.4919 117.898 42.3299 117.038 68.4368C129.653 72.1072 141.283 79.0914 150.471 88.9857C176.242 67.839 185.131 31.1719 170.094 -0.00012207C165.849 1.24256 161.65 2.86278 157.557 4.92343Z" fill="#52443D"/>
<path d="M63.3639 73.3289C58.4215 75.8143 53.8985 78.7978 49.7842 82.164C71.5348 105.618 106.933 112.964 136.933 97.8628C141.876 95.3774 146.399 92.3939 150.513 89.0277C128.762 65.5739 93.364 58.2279 63.3639 73.3289Z" fill="#85746C"/>
</svg>
