<svg width="177" height="177" viewBox="0 0 177 177" fill="none" xmlns="http://www.w3.org/2000/svg">
<path d="M59.711 140.054C74.8262 120.58 117.349 142.049 100.322 98.2956C83.3002 54.5421 142.289 50.0992 160.459 58.4713C165.832 60.9473 171.113 64.8117 176.12 69.6387C176.694 64.8395 176.995 59.9569 176.995 55.0049C176.995 47.725 176.356 40.5932 175.13 33.6604C138.494 22.2708 131.547 -7.34871 112.494 4.59627C93.0098 16.8097 66.3939 -8.21415 68.657 -26.0506C70.3787 -39.5876 78.6397 -57.2667 74.5717 -65.426C68.1942 -66.4534 61.6594 -66.9995 54.9904 -66.9995C39.1625 -66.9995 24.0381 -63.982 10.1586 -58.4978C18.1466 -33.8026 24.6629 -21.0061 4.71141 -5.96493C-19.8311 12.5426 -39.3151 0.153343 -39.3151 28.2687C-39.3151 56.384 -20.8076 68.0698 -39.3151 85.6055C-44.5587 90.5714 -52.07 93.5842 -60.257 95.1069C-56.4157 106.149 -51.038 116.47 -44.369 125.809C-17.6143 105.117 13.6528 135.769 22.173 151.148C25.8708 157.826 25.1488 165.31 22.5756 172.64C32.8962 175.477 43.7674 177 54.9904 177C57.4942 177 59.9841 176.917 62.4508 176.764C55.282 161.908 53.1114 148.542 59.7018 140.05L59.711 140.054ZM34.3956 122.357C20.2431 125.407 17.1794 86.1099 8.54806 68.5234C-0.0832367 50.9368 -11.9866 38.0616 -1.8095 27.232C8.36755 16.4024 18.6881 27.232 36.0571 13.4682C54.6294 -1.24895 71.0729 13.9773 74.1505 27.9956C77.2281 42.014 65.4776 57.2263 62.9275 64.7006C61.2275 69.6835 60.939 77.8396 62.0621 89.1691C63.7467 106.163 48.5482 119.307 34.3956 122.357Z" fill="#85746C"/>
<path d="M68.6618 -26.0462C66.3987 -8.20974 93.0146 16.8141 112.499 4.60068C131.552 -7.3443 138.499 22.2705 175.134 33.6648C166.161 -17.1974 125.684 -57.179 74.5811 -65.4216C78.6445 -57.2623 70.3834 -39.5832 68.6664 -26.0462H68.6618Z" fill="#52443D"/>
<path d="M62.0621 89.1691C60.939 77.8397 61.2275 69.6835 62.9275 64.7007C65.4776 57.2264 77.2282 42.014 74.1505 27.9957C71.0729 13.9774 54.6295 -1.24888 36.0571 13.4683C18.6881 27.2321 8.36757 16.4025 -1.80949 27.2321C-11.9865 38.0617 -0.0832267 50.9369 8.54807 68.5234C17.1794 86.11 20.2431 125.402 34.3957 122.357C48.5482 119.307 63.7513 106.163 62.0621 89.1691Z" fill="#52443D"/>
<path d="M22.1823 151.148C13.6621 135.769 -17.605 105.122 -44.3597 125.809C-28.2958 148.311 -4.78069 165.115 22.5803 172.64C25.1535 165.31 25.8801 157.826 22.1777 151.148H22.1823Z" fill="#52443D"/>
<path d="M-39.3058 28.2735C-39.3058 0.162739 -19.8218 12.552 4.72073 -5.96016C24.6676 -21.0013 18.1513 -33.7978 10.1679 -58.493C-35.0295 -40.6242 -67 3.45327 -67 55.005C-67 69.0557 -64.6166 82.5511 -60.2477 95.1116C-52.0653 93.589 -44.5494 90.5761 -39.3058 85.6102C-20.7983 68.0746 -39.3058 56.3888 -39.3058 28.2735Z" fill="#52443D"/>
<path d="M100.327 98.2909C117.349 142.044 74.8262 120.575 59.7157 140.05C53.1207 148.547 55.2913 161.913 62.4648 176.764C121.486 173.2 169.187 127.684 176.125 69.6341C171.117 64.807 165.841 60.9426 160.463 58.4666C142.294 50.0945 83.3048 54.5328 100.327 98.2909Z" fill="#52443D"/>
</svg>
